<?xml version="1.0" standalone="no"?>
<!DOCTYPE svg PUBLIC "-//W3C//DTD SVG 20010904//EN"
 "http://www.w3.org/TR/2001/REC-SVG-20010904/DTD/svg10.dtd">
<svg version="1.0" xmlns="http://www.w3.org/2000/svg"
 width="64.000000pt" height="64.000000pt" viewBox="0 0 64.000000 64.000000"
 preserveAspectRatio="xMidYMid meet">

<g transform="translate(0.000000,64.000000) scale(0.100000,-0.100000)"
fill="#000000" stroke="none">
<path d="M255 586 c-15 -35 -43 -50 -66 -35 -25 16 -52 9 -81 -18 -28 -27 -35
-56 -19 -82 15 -23 0 -51 -35 -66 -32 -13 -34 -17 -34 -65 0 -48 2 -52 34 -65
35 -15 50 -43 35 -66 -16 -26 -9 -55 19 -82 29 -27 56 -34 81 -18 23 15 51 0
66 -35 13 -32 17 -34 65 -34 48 0 52 2 65 34 15 35 43 50 66 35 25 -16 52 -9
81 18 28 27 35 56 19 82 -15 23 0 51 35 66 32 13 34 17 34 65 0 48 -2 52 -34
65 -35 15 -50 43 -35 66 16 25 9 52 -18 81 -27 28 -56 35 -82 19 -23 -15 -51
0 -66 35 -13 32 -17 34 -65 34 -48 0 -52 -2 -65 -34z m128 -110 c44 -18 95
-78 103 -121 11 -60 -4 -106 -50 -151 -45 -46 -91 -61 -151 -50 -43 8 -103 59
-121 103 -57 135 84 276 219 219z"/>
<path d="M250 451 c-43 -22 -80 -84 -79 -131 0 -40 38 -121 39 -83 0 11 14 33
30 46 17 14 26 29 20 32 -18 11 -11 61 13 83 29 28 57 28 91 1 27 -21 36 -71
16 -84 -6 -3 3 -18 20 -32 16 -13 30 -35 30 -46 1 -38 39 43 39 83 1 77 -72
150 -149 150 -19 0 -51 -8 -70 -19z"/>
<path d="M286 384 c-31 -30 -9 -84 34 -84 24 0 50 26 50 50 0 24 -26 50 -50
50 -10 0 -26 -7 -34 -16z"/>
<path d="M246 264 c-26 -26 -20 -61 14 -79 60 -31 150 -7 150 40 0 40 -25 55
-90 55 -40 0 -64 -5 -74 -16z"/>
</g>
</svg>
